<?xml version="1.0" standalone="no"?>
<!DOCTYPE svg PUBLIC "-//W3C//DTD SVG 20010904//EN"
 "http://www.w3.org/TR/2001/REC-SVG-20010904/DTD/svg10.dtd">
<svg version="1.0" xmlns="http://www.w3.org/2000/svg"
 width="2646.000000pt" height="929.000000pt" viewBox="0 0 2646.000000 929.000000"
 preserveAspectRatio="xMidYMid meet">
<metadata>
Created by potrace 1.15, written by Peter Selinger 2001-2017
</metadata>
<g transform="translate(0.000000,929.000000) scale(0.100000,-0.100000)"
fill="#000000" stroke="none">
<path d="M24385 9271 c-3 -6 -16 -11 -29 -11 -32 0 -153 -34 -211 -59 -171
-75 -313 -214 -395 -385 -172 -361 -38 -797 308 -1002 31 -18 63 -38 70 -44 6
-6 12 -9 12 -6 0 3 16 -2 36 -10 134 -56 351 -71 501 -35 173 41 283 101 404
221 228 226 291 551 165 850 -121 286 -409 470 -763 487 -58 3 -93 0 -98 -6z"/>
<path d="M4150 8958 c-12 -4 -34 -7 -49 -7 -14 1 -62 -3 -106 -9 -44 -7 -97
-14 -117 -16 -20 -2 -61 -9 -90 -15 -29 -6 -71 -12 -93 -14 -22 -2 -45 -6 -50
-9 -9 -6 -68 -19 -105 -23 -8 -1 -22 -5 -30 -8 -8 -3 -80 -24 -160 -46 -818
-226 -1424 -569 -1975 -1116 -428 -426 -768 -922 -1031 -1507 -70 -155 -162
-461 -204 -675 -7 -35 -17 -63 -22 -63 -5 0 -6 -5 -3 -10 3 -6 -1 -49 -11 -98
-9 -48 -18 -103 -20 -122 -3 -19 -9 -62 -15 -95 -6 -33 -13 -78 -15 -100 -3
-22 -12 -103 -20 -180 -12 -102 -16 -234 -16 -485 0 -349 7 -463 48 -709 8
-53 17 -110 19 -127 3 -16 12 -61 20 -98 9 -38 14 -75 11 -82 -3 -7 -2 -14 2
-16 4 -2 23 -59 41 -128 116 -430 289 -805 549 -1190 404 -597 839 -1031 1361
-1355 119 -74 342 -193 436 -233 28 -11 77 -33 110 -48 33 -15 65 -29 70 -30
23 -6 131 -47 148 -56 10 -5 26 -11 35 -13 10 -1 64 -17 122 -35 120 -36 184
-54 255 -70 28 -7 57 -14 65 -17 8 -3 24 -7 35 -9 11 -1 94 -16 185 -33 91
-17 190 -33 220 -36 30 -4 87 -11 125 -16 80 -10 107 -13 335 -35 229 -22 697
-22 885 0 77 9 158 19 180 22 22 2 65 9 95 14 30 5 69 12 85 14 144 23 416
100 630 179 404 147 606 246 888 436 341 229 741 624 1012 1000 548 761 882
1655 950 2546 52 669 -39 1275 -280 1868 -79 194 -306 606 -443 802 -237 340
-600 687 -982 937 -108 71 -324 195 -443 255 -216 108 -593 254 -774 299 -37
9 -72 19 -78 22 -5 4 -18 8 -29 9 -10 2 -77 16 -150 32 -125 28 -286 57 -371
66 -150 17 -267 27 -312 26 -28 -1 -54 3 -58 9 -8 13 -305 14 -305 0 0 -5 -13
-10 -30 -10 -16 0 -30 5 -30 10 0 6 -30 10 -69 10 -39 0 -73 -4 -76 -10 -3 -5
-39 -10 -78 -10 -62 0 -157 -9 -287 -26 -19 -2 -84 -13 -145 -24 -60 -12 -140
-22 -176 -24 -79 -4 -116 -20 -146 -65 -30 -44 -32 -149 -4 -201 19 -37 27
-43 267 -232 82 -65 163 -130 179 -145 17 -16 66 -59 110 -98 134 -119 265
-247 265 -260 0 -8 -25 -15 -72 -20 -40 -3 -120 -15 -178 -25 -57 -11 -106
-17 -109 -15 -2 3 -9 1 -15 -4 -6 -4 -29 -11 -52 -15 -36 -5 -42 -3 -51 17
-17 37 -64 87 -105 113 -101 64 -251 66 -488 7 -36 -9 -72 -17 -80 -18 -8 -1
-22 -5 -30 -8 -25 -10 -159 -45 -260 -67 -87 -19 -171 -29 -290 -33 l-45 -2
-7 50 c-4 28 -10 82 -13 120 -9 97 -12 127 -24 230 -6 50 -14 187 -17 305 l-7
215 119 57 c103 49 257 115 289 123 6 1 22 7 37 13 26 11 235 76 338 105 176
51 576 135 715 152 28 3 79 10 115 16 36 5 88 12 115 14 28 2 70 7 95 10 114
13 303 25 399 25 80 0 112 4 129 16 95 66 -100 104 -559 108 -146 2 -276 -1
-289 -6z m385 -569 c88 -5 178 -12 200 -14 22 -2 65 -5 95 -8 117 -10 190 -20
190 -26 0 -3 27 -7 60 -8 32 -1 78 -7 100 -13 23 -6 54 -13 70 -15 44 -5 143
-25 160 -32 8 -3 18 -6 22 -5 15 3 290 -71 403 -108 324 -107 444 -156 705
-287 289 -145 519 -293 726 -467 104 -87 324 -308 324 -324 0 -5 -48 12 -107
38 -60 27 -135 58 -168 70 -124 45 -403 137 -470 155 -59 16 -83 29 -150 85
-154 128 -301 220 -353 220 -34 0 -62 -27 -62 -60 0 -30 21 -62 89 -132 24
-26 42 -50 40 -53 -3 -3 -46 4 -95 15 -49 10 -145 26 -214 35 -69 9 -136 18
-150 20 -25 4 -53 7 -290 27 -69 6 -273 12 -453 13 l-328 3 -42 49 c-23 26
-60 68 -83 93 -22 25 -88 97 -145 159 -194 214 -379 386 -549 511 l-74 55 94
6 c161 9 288 9 455 -2z m-2070 -276 c3 -65 13 -191 21 -281 8 -89 11 -174 8
-187 -3 -14 -2 -25 3 -25 6 0 13 -33 17 -72 3 -40 9 -93 12 -118 6 -42 4 -45
-18 -46 -12 0 -41 -4 -63 -7 -22 -4 -112 -16 -200 -27 -88 -11 -182 -23 -209
-26 -48 -7 -55 -12 -242 -198 -177 -177 -315 -335 -423 -486 -99 -138 -246
-383 -320 -533 -35 -71 -44 -76 -47 -27 -1 16 -7 75 -13 132 -19 185 -34 476
-28 538 6 52 14 69 64 137 170 233 354 446 587 679 202 202 326 311 495 439
103 77 327 225 341 225 5 0 11 -53 15 -117z m3320 -873 c61 -6 153 -12 205
-15 52 -3 108 -8 124 -11 29 -6 28 -8 -35 -38 -168 -81 -285 -199 -468 -473
-45 -68 -83 -123 -85 -123 -2 0 -56 84 -120 188 -64 103 -161 250 -215 327
-54 77 -97 143 -94 148 6 10 556 8 688 -3z m-1022 -92 c130 -156 323 -430 434
-618 85 -145 85 -126 1 -164 -40 -19 -116 -52 -168 -74 -181 -77 -299 -137
-367 -187 -54 -40 -122 -114 -144 -157 -26 -51 -49 -152 -49 -220 0 -45 -4
-58 -17 -62 -30 -8 -97 -25 -123 -30 -47 -9 -365 -104 -485 -144 -143 -48
-317 -113 -474 -176 -62 -25 -119 -46 -125 -46 -6 0 -19 24 -28 53 -9 28 -44
138 -78 242 -34 105 -67 213 -75 240 -8 28 -28 97 -45 155 -68 234 -118 431
-126 490 -4 34 -1 39 78 105 166 137 344 236 668 371 167 69 245 105 320 148
27 15 151 44 211 50 20 2 40 5 45 8 9 5 115 24 179 32 17 2 66 9 110 15 44 6
100 13 125 14 25 2 55 4 67 5 15 1 35 -14 66 -50z m2770 -280 c235 -99 306
-139 358 -200 165 -194 286 -388 396 -638 48 -110 134 -344 153 -419 5 -20 22
-88 39 -151 16 -63 28 -116 26 -119 -3 -2 -1 -9 4 -15 4 -6 14 -40 20 -76 7
-36 19 -96 27 -135 41 -205 58 -413 59 -710 0 -292 -16 -481 -59 -700 -8 -38
-20 -98 -27 -133 -6 -34 -16 -65 -21 -68 -4 -3 -6 -9 -3 -14 3 -4 -10 -64 -29
-132 -19 -67 -46 -168 -60 -223 -38 -146 -139 -438 -193 -555 -9 -19 -17 -39
-19 -45 -1 -5 -14 -35 -28 -65 l-26 -55 5 60 c9 115 32 549 38 720 2 59 2 59
35 66 51 10 96 38 121 75 22 32 22 34 5 63 -10 16 -50 51 -89 76 l-71 47 -14
271 c-17 325 -21 383 -38 512 l-10 70 69 104 69 105 -5 90 c-3 50 -15 160 -28
244 -13 84 -21 154 -19 157 2 2 15 0 29 -6 32 -12 100 -12 124 1 10 6 19 19
19 30 0 24 -21 70 -32 70 -4 0 -30 15 -57 34 -26 19 -66 43 -88 54 -38 20 -39
22 -72 144 -144 528 -396 1018 -736 1429 -52 63 -95 117 -95 121 0 9 37 -5
223 -84z m-6829 -610 c3 -40 11 -166 16 -280 l11 -206 -113 -140 c-62 -77
-142 -185 -178 -240 -61 -95 -88 -125 -76 -84 3 9 8 44 11 77 4 33 11 80 17
105 5 25 12 56 14 70 24 123 61 249 118 395 58 148 159 375 167 375 3 0 9 -33
13 -72z m2030 -168 c20 -91 43 -187 50 -215 8 -27 31 -115 51 -195 20 -80 43
-167 51 -195 62 -216 84 -299 84 -315 0 -13 -43 -39 -162 -99 -178 -88 -222
-112 -432 -233 -296 -170 -632 -383 -854 -540 -64 -45 -117 -77 -122 -72 -13
14 -113 332 -151 480 l-33 131 40 84 c94 196 232 301 431 329 41 5 98 20 126
32 193 81 404 297 682 698 133 192 197 281 200 278 2 -2 20 -77 39 -168z
m-1954 -685 c0 -8 -13 -70 -30 -137 -46 -193 -84 -452 -94 -648 l-5 -84 43
-51 c90 -107 356 -475 356 -493 0 -5 -79 -65 -176 -133 -97 -68 -188 -138
-201 -156 -55 -72 -60 -153 -13 -228 27 -43 66 -65 119 -65 55 0 84 13 155 69
110 88 279 202 287 194 6 -6 85 -194 129 -309 8 -21 -7 -52 -50 -101 -6 -7
-10 -15 -9 -18 0 -3 -7 -25 -17 -48 -14 -33 -19 -71 -20 -172 0 -71 2 -132 5
-135 4 -3 17 -32 29 -64 47 -124 171 -271 302 -357 74 -49 184 -103 243 -119
34 -9 56 -23 74 -47 l26 -34 -113 -106 c-172 -164 -286 -313 -278 -366 3 -19
10 -22 62 -25 84 -4 192 14 252 44 29 13 101 67 160 119 60 52 114 95 120 95
6 0 33 -28 60 -62 84 -107 181 -217 329 -374 l144 -151 25 -89 c37 -133 141
-380 168 -400 19 -16 208 -92 331 -134 60 -21 111 -40 114 -43 3 -3 -28 -43
-69 -89 -40 -46 -83 -96 -95 -111 l-22 -28 -110 37 c-61 20 -111 40 -111 44 0
4 -6 7 -14 7 -35 0 -283 113 -449 205 -812 448 -1456 1191 -1802 2080 -103
267 -231 804 -260 1093 -4 33 -11 92 -16 130 -17 116 -23 295 -23 590 1 319 2
364 10 422 l5 41 57 -1 c55 -2 61 1 142 60 47 34 112 84 145 111 63 53 85 62
85 37z m3685 -112 c-4 -38 -10 -72 -13 -77 -3 -5 -6 -23 -8 -40 -2 -17 -15
-60 -30 -96 -24 -55 -28 -83 -32 -180 -10 -287 71 -456 261 -549 83 -41 140
-51 352 -62 99 -5 203 -11 232 -13 66 -7 163 -39 233 -79 83 -47 235 -205 216
-224 -3 -4 -55 -10 -114 -14 -59 -4 -141 -12 -182 -18 -41 -6 -95 -13 -120
-16 -25 -3 -103 -16 -175 -29 -394 -74 -708 -166 -1058 -311 -76 -32 -142 -53
-146 -49 -5 5 -32 63 -61 129 -187 425 -492 1268 -467 1291 18 17 295 137 462
200 222 83 566 191 648 203 5 0 5 -29 2 -66z m-1321 -693 c92 -266 166 -473
201 -565 15 -38 28 -74 30 -80 1 -5 7 -23 14 -40 7 -16 42 -104 78 -195 36
-91 81 -198 99 -239 19 -40 34 -77 34 -82 0 -5 -14 -16 -31 -24 -29 -15 -76
-14 -104 3 -5 3 -16 7 -25 8 -8 1 -103 25 -210 53 -202 52 -509 124 -630 147
-14 2 -72 14 -130 26 -76 16 -140 22 -230 22 -124 0 -127 0 -339 -62 -118 -35
-217 -60 -222 -55 -4 4 -21 44 -37 88 -83 220 -102 277 -97 285 8 13 311 234
420 307 211 141 329 215 468 297 81 47 150 86 152 86 3 0 26 13 52 29 97 59
418 220 425 213 4 -4 41 -104 82 -222z m4845 -690 c15 -170 22 -310 17 -310
-2 0 -33 13 -68 28 -34 16 -84 34 -111 42 -26 7 -50 16 -53 21 -4 7 144 314
178 369 12 18 13 18 19 2 4 -9 12 -78 18 -152z m-2084 -306 c45 -76 111 -167
171 -234 78 -88 92 -124 92 -232 0 -78 -16 -182 -35 -228 -3 -8 -7 -24 -8 -36
-2 -11 -8 -38 -14 -60 -8 -32 -30 -131 -46 -215 -18 -90 -26 -298 -16 -400 6
-63 11 -120 11 -126 0 -9 -54 -18 -175 -29 -88 -8 -314 -51 -520 -99 -5 -1
-17 -5 -25 -8 -8 -4 -40 -13 -72 -21 -31 -8 -129 -38 -219 -68 -89 -29 -164
-48 -166 -43 -2 6 -66 106 -143 223 -177 269 -395 618 -492 787 -72 125 -198
367 -198 379 0 4 30 20 67 37 114 52 253 108 253 102 0 -3 6 -1 13 5 15 12
256 96 357 124 156 43 304 78 308 73 3 -3 10 -1 16 4 6 4 40 14 76 20 36 7 87
17 114 22 86 17 318 48 395 54 41 3 77 7 79 10 3 3 38 5 78 5 l72 0 27 -46z
m1790 -171 c30 -5 266 -84 299 -100 l28 -15 -6 -466 c-8 -712 -6 -694 -91
-822 -34 -52 -78 -113 -97 -135 l-35 -39 -84 26 c-46 15 -102 32 -124 38 -22
6 -47 14 -55 17 -8 3 -19 7 -25 7 -5 1 -26 5 -45 10 -76 17 -75 13 -34 63 35
43 38 51 51 162 10 84 11 162 6 286 -10 222 -10 435 0 510 14 106 55 224 147
428 14 31 25 45 33 40 7 -4 21 -9 32 -10z m-3632 -915 c75 -124 297 -477 376
-599 55 -85 114 -175 130 -201 l30 -47 -97 -52 c-154 -83 -307 -175 -452 -274
-141 -95 -202 -137 -210 -145 -3 -3 -23 -18 -44 -34 l-39 -29 7 174 c3 96 11
217 17 269 5 52 12 120 15 150 9 96 35 191 95 348 57 148 97 261 104 292 7 35
26 106 32 120 3 8 5 23 4 33 -3 24 16 21 32 -5z m2097 -820 c41 -115 107 -259
156 -341 41 -67 140 -177 159 -177 7 0 24 9 38 20 14 11 28 20 31 20 8 0 6
-282 -2 -345 l-7 -50 -160 -80 c-168 -83 -452 -205 -486 -208 -10 -1 -19 -5
-19 -9 0 -52 -158 121 -418 456 -124 160 -367 508 -374 535 -2 8 29 25 75 42
42 15 77 25 77 21 0 -4 4 -2 8 4 9 13 298 95 457 130 99 21 379 70 421 73 6 1
26 -41 44 -91z m1304 61 c67 -11 143 -26 169 -32 l48 -13 -64 -75 c-92 -108
-280 -284 -415 -388 -120 -94 -393 -281 -410 -281 -9 0 -7 266 4 376 l5 60 70
53 c38 29 133 115 212 191 l142 138 59 -4 c32 -3 113 -14 180 -25z m-2598
-484 c186 -275 454 -643 567 -779 36 -44 45 -61 35 -67 -14 -7 -281 -45 -393
-54 -133 -12 -171 -14 -411 -21 l-240 -7 -130 88 c-291 198 -502 358 -503 380
-2 23 285 225 500 353 152 90 457 244 475 240 6 -2 51 -61 100 -133z m-1052
-774 c221 -146 219 -140 36 -121 -52 6 -117 13 -145 15 -67 7 -210 34 -241 45
-25 10 -25 10 -7 41 38 65 125 161 141 156 10 -2 106 -63 216 -136z"/>
<path d="M12700 6910 c-14 -4 -68 -10 -121 -14 -274 -19 -622 -105 -884 -218
-586 -255 -1048 -706 -1291 -1260 -39 -89 -112 -282 -119 -312 -1 -6 -5 -28
-10 -49 -4 -20 -11 -40 -16 -43 -5 -3 -7 -9 -5 -12 2 -4 -2 -34 -10 -67 -8
-33 -25 -134 -39 -225 -22 -148 -24 -191 -21 -420 2 -223 6 -274 30 -412 74
-430 223 -786 467 -1115 88 -118 294 -331 415 -428 201 -162 473 -317 719
-409 109 -40 275 -91 334 -102 12 -3 51 -11 85 -19 271 -63 684 -79 1001 -38
66 8 131 16 145 18 14 1 32 5 40 8 15 5 94 24 136 31 50 10 231 70 336 112
265 107 531 277 763 488 l50 45 -386 387 -387 387 -99 -89 c-126 -113 -233
-189 -353 -252 -94 -50 -298 -127 -308 -117 -3 3 -10 1 -16 -4 -11 -9 -90 -27
-156 -36 -239 -32 -433 -25 -630 25 -468 119 -802 452 -924 922 -13 51 -27
119 -30 151 l-5 57 1874 0 1875 0 0 273 c-1 452 -30 719 -116 1037 -171 634
-502 1099 -995 1396 -130 79 -347 171 -503 213 -161 43 -214 53 -366 70 -58 6
-125 14 -150 17 -66 9 -301 12 -330 4z m315 -955 c137 -28 215 -54 325 -109
206 -103 360 -256 460 -455 42 -84 83 -191 73 -191 -3 0 -1 -6 4 -12 21 -26
53 -212 53 -305 l0 -63 -1260 0 -1260 0 5 35 c18 146 76 338 141 469 168 337
449 556 810 632 200 41 441 41 649 -1z"/>
<path d="M17470 6909 c-19 -4 -89 -12 -155 -19 -141 -13 -147 -14 -245 -34
-203 -40 -382 -101 -565 -192 -188 -93 -311 -180 -445 -314 -204 -204 -331
-448 -386 -745 -26 -137 -26 -440 -1 -573 109 -566 480 -877 1282 -1073 99
-24 182 -46 185 -49 3 -3 19 -6 35 -8 120 -11 622 -140 733 -188 17 -8 49 -21
70 -30 288 -127 406 -409 278 -662 -117 -231 -514 -390 -876 -353 -154 16
-206 27 -347 70 -59 17 -186 82 -273 139 -116 75 -213 156 -337 280 l-104 105
-75 -74 c-72 -70 -704 -704 -713 -715 -8 -8 120 -133 223 -216 251 -203 532
-342 856 -423 76 -19 147 -35 158 -35 12 0 24 -5 27 -10 4 -6 10 -8 14 -6 4 3
50 -1 102 -9 175 -27 482 -38 698 -26 108 6 223 16 256 21 33 5 80 12 105 15
132 15 347 72 524 137 504 185 858 527 978 943 12 44 25 82 28 85 3 3 5 12 5
20 2 43 19 140 25 140 10 0 9 421 -1 440 -4 8 -14 53 -23 100 -93 508 -442
843 -1085 1039 -176 54 -425 118 -576 147 -16 3 -79 17 -140 30 -60 14 -121
28 -135 30 -51 10 -198 54 -291 87 -192 68 -305 151 -362 266 -52 106 -47 240
13 361 25 50 105 139 155 173 102 70 250 120 405 137 33 4 197 4 235 0 70 -7
159 -21 169 -27 5 -4 23 -8 38 -10 52 -5 205 -74 295 -132 101 -66 210 -164
285 -258 l51 -65 389 389 c213 213 388 391 388 395 0 3 -35 43 -77 88 -364
387 -931 601 -1628 614 -71 1 -146 -1 -165 -5z"/>
<path d="M22695 6910 c-11 -4 -53 -10 -94 -14 -40 -3 -129 -20 -197 -36 -438
-105 -794 -379 -1010 -777 -21 -40 -43 -71 -49 -70 -6 2 -11 144 -13 390 l-2
387 -610 0 -610 0 2 -2462 3 -2463 607 -3 608 -2 3 1352 c1 744 6 1380 10
1413 9 72 46 233 59 258 5 10 11 27 13 38 9 46 92 216 142 292 160 239 368
388 658 472 49 14 105 27 125 28 19 1 41 6 48 11 22 13 369 19 452 7 41 -6 93
-13 115 -16 22 -3 86 -16 142 -29 l101 -23 6 81 c10 143 41 926 41 1045 l0 54
-80 19 c-176 42 -418 67 -470 48z"/>
<path d="M25994 6811 c-2 -2 -29 -13 -61 -23 -183 -62 -298 -251 -264 -435 45
-243 276 -387 511 -317 248 74 359 373 217 589 -77 117 -200 185 -339 189 -33
0 -61 -1 -64 -3z m211 -103 c65 -34 137 -110 161 -173 29 -77 26 -185 -7 -256
-55 -117 -152 -181 -281 -187 -100 -5 -161 15 -228 75 -87 78 -109 131 -112
262 -1 55 4 77 26 122 43 84 130 162 194 172 12 2 25 7 29 11 5 4 44 6 88 4
60 -4 92 -11 130 -30z"/>
<path d="M25910 6421 l0 -231 40 0 39 0 3 93 3 92 29 0 c27 0 35 -9 85 -92
l56 -93 42 0 c24 0 43 2 43 5 0 3 -9 18 -19 33 -28 40 -91 142 -91 147 0 3 15
11 34 19 65 27 89 98 58 170 -29 64 -60 77 -203 83 l-119 6 0 -232z m232 132
c24 -21 23 -65 -2 -88 -14 -13 -37 -18 -82 -19 l-63 -1 -3 54 c-5 82 -2 85 70
77 35 -3 69 -13 80 -23z"/>
<path d="M23880 4325 l0 -2465 613 2 612 3 3 2463 2 2462 -615 0 -615 0 0
-2465z"/>
</g>
</svg>
